<mxfile host="65bd71144e">
    <diagram id="GA4pnF8i726-3I7FZShM" name="Page-1">
        <mxGraphModel dx="644" dy="369" grid="1" gridSize="10" guides="1" tooltips="1" connect="1" arrows="1" fold="1" page="1" pageScale="1" pageWidth="850" pageHeight="1100" background="none" math="0" shadow="0">
            <root>
                <mxCell id="0"/>
                <mxCell id="1" parent="0"/>
                <mxCell id="51MKtRIZlJfcyBp28Ae_-1" value="Actor" style="shape=umlActor;verticalLabelPosition=bottom;verticalAlign=top;html=1;outlineConnect=0;" parent="1" vertex="1">
                    <mxGeometry x="130" y="80" width="30" height="60" as="geometry"/>
                </mxCell>
                <mxCell id="51MKtRIZlJfcyBp28Ae_-2" value="Use Case" style="ellipse;whiteSpace=wrap;html=1;" parent="1" vertex="1">
                    <mxGeometry x="240" y="80" width="140" height="70" as="geometry"/>
                </mxCell>
                <mxCell id="51MKtRIZlJfcyBp28Ae_-3" value="Actor" style="shape=umlActor;verticalLabelPosition=bottom;verticalAlign=top;html=1;" parent="1" vertex="1">
                    <mxGeometry x="450" y="80" width="30" height="60" as="geometry"/>
                </mxCell>
            </root>
        </mxGraphModel>
    </diagram>
</mxfile>